<svg xmlns="http://www.w3.org/2000/svg" width="760" height="460" viewBox="0 0 760 460">
<title>Per-seed macro-F1 versus trainable parameters</title>
<rect width="100%" height="100%" fill="white"/>
<text x="30" y="30" font-family="sans-serif" font-size="20" fill="#16212b">Per-seed macro-F1 versus trainable parameters</text>
<line x1="80" y1="390" x2="700" y2="390" stroke="#16212b"/>
<line x1="80" y1="60" x2="80" y2="390" stroke="#16212b"/>
<text x="390" y="435" text-anchor="middle" font-family="sans-serif">log10(trainable parameters)</text>
<text x="18" y="235" transform="rotate(-90 18 235)" text-anchor="middle" font-family="sans-serif">test macro-F1</text>
<circle cx="213.2" cy="120.9" r="5" fill="#2a9d8f"/><text x="220.2" y="113.9" font-family="sans-serif" font-size="11">baseline</text>
<circle cx="700.0" cy="88.4" r="5" fill="#b23a48"/><text x="707.0" y="81.4" font-family="sans-serif" font-size="11">full</text>
<circle cx="700.0" cy="100.9" r="5" fill="#b23a48"/><text x="707.0" y="93.9" font-family="sans-serif" font-size="11">full</text>
<circle cx="700.0" cy="101.2" r="5" fill="#b23a48"/><text x="707.0" y="94.2" font-family="sans-serif" font-size="11">full</text>
<circle cx="80.0" cy="140.9" r="5" fill="#f18f01"/><text x="87.0" y="133.9" font-family="sans-serif" font-size="11">head_only</text>
<circle cx="80.0" cy="163.2" r="5" fill="#f18f01"/><text x="87.0" y="156.2" font-family="sans-serif" font-size="11">head_only</text>
<circle cx="80.0" cy="147.6" r="5" fill="#f18f01"/><text x="87.0" y="140.6" font-family="sans-serif" font-size="11">head_only</text>
<circle cx="340.2" cy="94.4" r="5" fill="#247ba0"/><text x="347.2" y="87.4" font-family="sans-serif" font-size="11">lora</text>
<circle cx="340.2" cy="93.5" r="5" fill="#247ba0"/><text x="347.2" y="86.5" font-family="sans-serif" font-size="11">lora</text>
<circle cx="340.2" cy="95.2" r="5" fill="#247ba0"/><text x="347.2" y="88.2" font-family="sans-serif" font-size="11">lora</text>
</svg>